<?xml version="1.0" standalone="no"?>
<!DOCTYPE svg PUBLIC "-//W3C//DTD SVG 20010904//EN"
 "http://www.w3.org/TR/2001/REC-SVG-20010904/DTD/svg10.dtd">
<svg version="1.0" xmlns="http://www.w3.org/2000/svg"
 width="316.000000pt" height="316.000000pt" viewBox="0 0 316.000000 316.000000"
 preserveAspectRatio="xMidYMid meet">
<metadata>
Created by potrace 1.14, written by Peter Selinger 2001-2017
</metadata>
<g transform="translate(0.000000,316.000000) scale(0.100000,-0.100000)"
fill="#000000" stroke="none">
<path d="M2223 3129 c17 -17 31 -33 29 -36 -2 -2 10 -14 25 -26 19 -15 24 -16
14 -4 -12 15 -12 17 3 11 9 -3 16 -11 16 -18 1 -6 15 -22 32 -36 17 -14 47
-42 67 -62 20 -21 40 -38 44 -38 4 0 22 -16 40 -35 17 -19 35 -35 40 -35 4 0
31 -24 60 -52 30 -29 91 -87 137 -128 45 -41 91 -83 101 -92 11 -10 24 -18 29
-18 6 0 10 -6 10 -14 0 -8 9 -17 20 -21 11 -3 32 -21 47 -39 16 -18 43 -42 61
-55 17 -12 32 -29 32 -36 0 -8 8 -16 18 -19 10 -3 37 -24 61 -46 23 -22 45
-40 47 -40 2 0 4 196 4 435 l0 435 -485 0 -485 0 33 -31z"/>
<path d="M1163 1713 l-41 -4 6 -61 c5 -57 4 -61 -14 -53 -61 26 -114 12 -144
-37 -60 -98 25 -216 128 -178 26 9 37 10 40 1 2 -6 20 -11 40 -11 l37 0 0 175
c0 96 -2 174 -5 173 -3 -1 -24 -3 -47 -5z m-49 -199 c19 -18 19 -20 6 -45 -19
-34 -80 -19 -80 21 0 38 46 53 74 24z"/>
<path d="M1486 1710 c-34 -11 -73 -45 -92 -83 -20 -38 -21 -125 -1 -163 50
-96 187 -123 255 -51 l21 22 -20 32 -20 32 -32 -19 c-45 -28 -81 -25 -106 6
-42 53 -12 144 47 144 15 0 41 -9 59 -19 l31 -20 16 24 c27 42 20 64 -26 85
-46 21 -85 24 -132 10z"/>
<path d="M36 1648 c-6 -60 -4 -66 44 -168 l50 -105 40 -3 c35 -3 41 0 50 22 6
14 15 38 21 54 l11 27 23 -52 c23 -51 26 -53 62 -53 l38 0 52 113 c47 104 51
116 46 170 l-5 57 -44 0 -44 0 0 -64 c0 -43 -7 -80 -21 -113 l-21 -48 -18 45
c-12 28 -19 71 -19 113 l-1 67 -44 0 -43 0 -5 -77 c-3 -43 -12 -93 -20 -112
l-14 -35 -22 47 c-16 33 -22 66 -22 112 l0 65 -44 0 -43 0 -7 -62z"/>
<path d="M2540 1640 c0 -34 -4 -50 -13 -50 -9 0 -12 -11 -9 -35 2 -19 8 -35
13 -35 5 0 9 -24 9 -54 0 -30 3 -61 6 -70 8 -22 66 -30 108 -16 30 10 36 16
36 41 0 25 -4 29 -29 29 -29 0 -41 14 -41 51 0 15 7 19 35 19 34 0 35 1 35 40
0 39 -1 40 -36 40 l-36 0 7 40 c6 34 4 40 -12 41 -10 0 -30 3 -45 5 -27 5 -28
4 -28 -46z"/>
<path d="M563 1595 c-43 -18 -67 -66 -60 -122 6 -53 28 -79 78 -94 87 -27 159
23 159 110 0 53 -18 84 -60 106 -36 18 -75 19 -117 0z m91 -80 c12 -13 13 -21
4 -40 -18 -40 -78 -28 -78 15 0 37 46 53 74 25z"/>
<path d="M800 1603 l-35 -4 3 -92 c4 -134 5 -137 52 -137 l39 0 3 68 3 67 33
3 c31 3 32 5 32 48 0 48 -6 52 -50 29 -28 -15 -30 -14 -30 5 0 11 -3 19 -7 18
-5 -1 -24 -3 -43 -5z"/>
<path d="M1743 1596 c-57 -26 -80 -105 -47 -167 34 -66 149 -77 199 -18 37 44
36 117 -2 159 -34 37 -100 48 -150 26z m97 -86 c8 -14 8 -26 0 -40 -19 -35
-80 -20 -80 20 0 40 61 55 80 20z"/>
<path d="M2284 1603 l-32 -4 2 -112 1 -112 43 -3 42 -3 0 75 c0 73 1 76 26 82
36 9 44 -7 44 -88 l0 -68 40 0 40 0 0 104 c0 97 -2 106 -22 120 -28 20 -61 20
-98 1 -27 -14 -30 -14 -30 0 0 8 -6 14 -12 13 -7 0 -27 -3 -44 -5z"/>
<path d="M2764 1591 c-76 -46 -68 -173 11 -207 64 -27 155 -12 155 25 0 26
-27 48 -42 33 -17 -17 -60 -15 -84 3 -18 14 -18 14 6 16 75 3 125 11 131 21 8
12 2 43 -14 76 -24 51 -107 67 -163 33z m85 -55 c9 -11 7 -15 -11 -20 -36 -9
-48 -7 -48 8 0 25 41 34 59 12z"/>
<path d="M2982 1603 c-16 -3 -22 -9 -18 -20 3 -8 6 -59 6 -114 l0 -99 45 0 45
0 0 54 c0 73 6 86 41 86 25 0 29 4 29 29 0 16 3 37 7 47 5 14 1 16 -23 12 -16
-3 -37 -9 -46 -13 -13 -5 -18 -3 -18 9 0 16 -18 18 -68 9z"/>
<path d="M1964 1564 c-4 -20 -4 -64 -1 -97 4 -47 11 -66 27 -79 27 -22 62 -23
100 -3 27 14 30 14 30 0 0 -11 11 -15 45 -15 l45 0 0 115 0 115 -45 0 -44 0
-3 -72 -3 -73 -30 0 -30 0 -3 73 -3 72 -39 0 c-37 0 -39 -2 -46 -36z"/>
<path d="M0 150 l0 -150 170 0 171 0 -68 66 c-91 88 -145 135 -176 157 -15 10
-27 23 -27 30 0 7 -16 20 -35 29 l-35 18 0 -150z"/>
</g>
</svg>
